<svg id="Layer_1" data-name="Layer 1" xmlns="http://www.w3.org/2000/svg" xmlns:xlink="http://www.w3.org/1999/xlink" viewBox="0 0 2267.72 566.93"><defs><style>.cls-1{fill:none;}.cls-2{clip-path:url(#clip-path);}.cls-3{fill:#005fcc;}.cls-4{fill:#fefefe;}</style><clipPath id="clip-path"><circle class="cls-1" cx="613.24" cy="282.4" r="208.49"/></clipPath></defs><path d="M2012.49,493c105.56,0,151.46-53.19,151.46-115.8,0-151.45-251.25-93.91-251.25-193.69,0-42.25,42.25-73.55,96.85-73.55,45.9,0,90.27,15.29,120.15,50.24l23.3-27.65C2120.28,97.62,2072.87,75,2009.55,75c-76.48,0-138.38,43.66-138.38,109.2,0,142.75,250.43,77.2,250.43,193.7,0,40.73-29.08,80.14-108.5,80.14-57.54,0-104.14-28.37-129.57-57.55l-24.72,28.37C1890.21,466.07,1944.11,493,2012.49,493Zm-447,0c108.5,0,164.52-62.61,164.52-161.69V83.74h-40V329.81c0,79.33-44.37,127.45-124.5,127.45s-123.8-48-123.8-127.45V83.74h-40V331.33C1401.71,430.41,1457.13,493,1565.53,493Zm-436.74,0c66.26,0,116.51-27.66,154.39-74.26l-32-19.65c-24.72,35.66-72.84,58.25-122.28,58.25-95.43,0-169.68-72.84-169.68-174s74.25-172.62,169.58-172.62c49.54,0,95.43,21.88,122.28,58.25l31.3-19.66C1246,103.39,1195.05,75,1128.69,75,1010,75,917.57,160.22,917.57,283.31,917.67,407.11,1010.16,493,1128.79,493Zm-783.3-8.82V448.54H143.79V83.74h-40V484.2Z"/><g class="cls-2"><circle class="cls-3" cx="613.24" cy="282.4" r="208.49"/><path class="cls-4" d="M423.44,434.68a13.67,13.67,0,0,1-12.53-19c1.88-4.37,47.41-108.5,168.46-218a13.65,13.65,0,1,1,18.32,20.23C481.36,323.12,436.42,425.4,436,426.43A13.64,13.64,0,0,1,423.44,434.68Z"/><path class="cls-4" d="M636.25,347.14a13.65,13.65,0,0,1-9-23.9c1-.92,105.53-93.5,151.42-194a13.65,13.65,0,0,1,24.83,11.33C755.13,246.47,649.71,339.83,645.25,343.74A13.59,13.59,0,0,1,636.25,347.14Z"/><path class="cls-4" d="M785.75,303.8a13.64,13.64,0,0,1-11.85-20.39c25.34-44.54,28.82-95.22,28.85-95.73A13.65,13.65,0,0,1,830,189.42c-.15,2.32-4,57.52-32.37,107.48A13.65,13.65,0,0,1,785.75,303.8Z"/><path class="cls-4" d="M654.76,164.88a13.65,13.65,0,0,1-9.23-23.7c1.61-1.48,40-36.42,97.94-61a13.65,13.65,0,1,1,10.67,25.12C700.77,128,664.34,161,664,161.3A13.6,13.6,0,0,1,654.76,164.88Z"/><path class="cls-4" d="M488.4,198.58a13.65,13.65,0,0,1-10.46-22.41c4.14-5,103.12-121.54,230.1-128a13.51,13.51,0,0,1,14.32,12.95,13.64,13.64,0,0,1-12.94,14.32C594.48,81.29,499.8,192.57,498.86,193.7A13.65,13.65,0,0,1,488.4,198.58Z"/><path class="cls-4" d="M404.3,380.13a13.65,13.65,0,0,1-13.65-13.64c0-51.47,31.46-110,32.8-112.48a13.65,13.65,0,0,1,24,13c-.3.55-29.5,55-29.5,99.48A13.64,13.64,0,0,1,404.3,380.13Z"/><path class="cls-4" d="M446.27,469.85a51,51,0,0,1-10.26-1,13.64,13.64,0,1,1,5.49-26.73c26.74,5.38,86.85-33.58,118.53-59.48a13.65,13.65,0,0,1,17.28,21.14C568.54,411,495.06,469.85,446.27,469.85Z"/><path class="cls-4" d="M485.55,511.84a13.64,13.64,0,0,1-.14-27.27c1.53-.07,154.45-7.77,246.7-119.48a13.64,13.64,0,1,1,21,17.37C653,503.77,493.27,511.57,486.52,511.83,486.2,511.85,485.87,511.85,485.55,511.84Z"/></g></svg>